<?xml version="1.0" encoding="UTF-8" standalone="no"?>
<!-- Created with Inkscape (http://www.inkscape.org/) -->

<svg
   xmlns:dc="http://purl.org/dc/elements/1.1/"
   xmlns:cc="http://creativecommons.org/ns#"
   xmlns:rdf="http://www.w3.org/1999/02/22-rdf-syntax-ns#"
   xmlns:svg="http://www.w3.org/2000/svg"
   xmlns="http://www.w3.org/2000/svg"
   xmlns:sodipodi="http://sodipodi.sourceforge.net/DTD/sodipodi-0.dtd"
   xmlns:inkscape="http://www.inkscape.org/namespaces/inkscape"
   version="1.1"
   id="svg2"
   xml:space="preserve"
   width="646"
   height="646"
   viewBox="0 0 646 646"
   sodipodi:docname="gbcoid.svg"
   inkscape:version="0.92.2 2405546, 2018-03-11"
   inkscape:export-filename="/home/emanuele/Desktop/gbcoid_mdpi.png"
   inkscape:export-xdpi="7.1300001"
   inkscape:export-ydpi="7.1300001"><metadata
     id="metadata8"><rdf:RDF><cc:Work
         rdf:about=""><dc:format>image/svg+xml</dc:format><dc:type
           rdf:resource="http://purl.org/dc/dcmitype/StillImage" /><dc:title></dc:title></cc:Work></rdf:RDF></metadata><defs
     id="defs6"><clipPath
       clipPathUnits="userSpaceOnUse"
       id="clipPath20"><path
         d="M 0,485.035 H 648.988 V 0 H 0 Z"
         id="path18"
         inkscape:connector-curvature="0" /></clipPath><clipPath
       clipPathUnits="userSpaceOnUse"
       id="clipPath318"><path
         d="M 0,485.035 H 648.988 V 0 H 0 Z"
         id="path316"
         inkscape:connector-curvature="0" /></clipPath><clipPath
       clipPathUnits="userSpaceOnUse"
       id="clipPath452"><path
         d="M 43.5264,228.865 H 148.433 V 136.553 H 43.5264 Z"
         id="path450"
         inkscape:connector-curvature="0" /></clipPath><clipPath
       clipPathUnits="userSpaceOnUse"
       id="clipPath942"><path
         d="M 207.413,228.865 H 312.32 V 136.553 H 207.413 Z"
         id="path940"
         inkscape:connector-curvature="0" /></clipPath><clipPath
       clipPathUnits="userSpaceOnUse"
       id="clipPath1432"><path
         d="M 383.073,446.352 H 599.476 V 255.917 H 383.073 Z"
         id="path1430"
         inkscape:connector-curvature="0" /></clipPath><clipPath
       clipPathUnits="userSpaceOnUse"
       id="clipPath1922"><path
         d="M 43.5259,453.788 H 148.428 V 361.475 H 43.5259 Z"
         id="path1920"
         inkscape:connector-curvature="0" /></clipPath><clipPath
       clipPathUnits="userSpaceOnUse"
       id="clipPath2412"><path
         d="M 207.417,453.787 H 312.318 V 361.475 H 207.417 Z"
         id="path2410"
         inkscape:connector-curvature="0" /></clipPath></defs><sodipodi:namedview
     pagecolor="#ffffff"
     bordercolor="#666666"
     borderopacity="1"
     objecttolerance="10"
     gridtolerance="10"
     guidetolerance="10"
     inkscape:pageopacity="0"
     inkscape:pageshadow="2"
     inkscape:window-width="1920"
     inkscape:window-height="1028"
     id="namedview4"
     showgrid="false"
     inkscape:zoom="0.72984422"
     inkscape:cx="333.0429"
     inkscape:cy="400.50143"
     inkscape:window-x="0"
     inkscape:window-y="0"
     inkscape:window-maximized="1"
     inkscape:current-layer="g312" /><g
     id="g10"
     inkscape:groupmode="layer"
     inkscape:label="FreeVector-Game-Boy-Color"
     transform="matrix(1.3333333,0,0,-1.3333333,0,646.00002)"><g
       id="g14"><g
         id="g16"
         clip-path="url(#clipPath20)"><g
           id="g22"
           transform="translate(120.2134,-14.7412)"><path
             d="m 0,0 c -0.02,0.858 -0.779,1.464 -1.62,1.464 -1.852,0 -2.145,-1.579 -2.145,-2.984 0,-1.305 0.567,-2.652 1.973,-2.652 1.147,0 1.733,0.662 1.89,1.734 h 3.218 c -0.293,-2.708 -2.4,-4.271 -5.091,-4.271 -3.041,0 -5.304,2.089 -5.304,5.189 0,3.219 2.048,5.521 5.304,5.521 2.516,0 4.758,-1.328 4.994,-4.001 z"
             style="fill:#000000;fill-opacity:1;fill-rule:nonzero;stroke:none"
             id="path24"
             inkscape:connector-curvature="0" /></g><g
           id="g26"
           transform="translate(128.8208,-10.8154)"><path
             d="m 0,0 c -3.126,0 -5.303,-2.313 -5.303,-5.345 0,-3.029 2.177,-5.324 5.303,-5.324 3.127,0 5.326,2.295 5.326,5.324 C 5.326,-2.313 3.127,0 0,0"
             style="fill:#000000;fill-opacity:1;fill-rule:nonzero;stroke:none"
             id="path28"
             inkscape:connector-curvature="0" /></g><g
           id="g30"
           transform="translate(111.4771,-18.3193)"><path
             d="m 0,0 c -0.86,0 -1.458,-0.636 -1.458,-1.468 0,-0.833 0.598,-1.462 1.458,-1.462 0.859,0 1.461,0.629 1.461,1.462 C 1.461,-0.636 0.859,0 0,0"
             style="fill:#000000;fill-opacity:1;fill-rule:nonzero;stroke:none"
             id="path32"
             inkscape:connector-curvature="0" /></g><g
           id="g34"
           transform="translate(134.3779,-11.4629)"><path
             d="m 0,0 h 3.139 v -1.352 h 0.037 c 0.591,0.991 1.635,1.637 2.835,1.637 1.235,0 2.338,-0.398 2.87,-1.598 0.781,1.046 1.749,1.598 3.081,1.598 3.139,0 3.48,-2.377 3.48,-4.262 v -5.892 h -3.234 v 5.8 c 0,1.064 -0.512,1.69 -1.349,1.69 -1.388,0 -1.521,-1.062 -1.521,-2.661 V -9.869 H 6.105 v 5.609 c 0,1.159 -0.343,1.881 -1.216,1.881 -1.162,0 -1.654,-0.665 -1.654,-2.681 V -9.869 H 0 Z"
             style="fill:#000000;fill-opacity:1;fill-rule:nonzero;stroke:none"
             id="path36"
             inkscape:connector-curvature="0" /></g><g
           id="g38"
           transform="translate(68.6528,-21.2285)"><path
             d="m 0,0 h -3.686 l -3.256,9.762 h 3.33 l 1.786,-6.454 h 0.038 l 1.807,6.454 h 3.257 z"
             style="fill:#000000;fill-opacity:1;fill-rule:nonzero;stroke:none"
             id="path40"
             inkscape:connector-curvature="0" /></g><g
           id="g42"
           transform="translate(73.6675,-17.1309)"><path
             d="m 0,0 c 0.056,-1.335 0.831,-2.219 2.184,-2.219 0.767,0 1.52,0.361 1.818,1.073 H 6.995 C 6.414,-3.403 4.324,-4.383 2.142,-4.383 c -3.177,0 -5.341,1.922 -5.341,5.193 0,2.99 2.392,5.133 5.267,5.133 3.498,0 5.25,-2.631 5.1,-5.943 z"
             style="fill:#000000;fill-opacity:1;fill-rule:nonzero;stroke:none"
             id="path44"
             inkscape:connector-curvature="0" /></g><g
           id="g46"
           transform="translate(87.6758,-15.041)"><path
             d="m 0,0 c -0.02,0.827 -0.752,1.412 -1.562,1.412 -1.788,0 -2.068,-1.528 -2.068,-2.881 0,-1.261 0.547,-2.558 1.903,-2.558 1.107,0 1.668,0.64 1.823,1.676 h 3.1 c -0.279,-2.614 -2.314,-4.122 -4.907,-4.122 -2.934,0 -5.113,2.014 -5.113,5.004 0,3.105 1.973,5.323 5.113,5.323 2.424,0 4.589,-1.279 4.815,-3.854 z"
             style="fill:#000000;fill-opacity:1;fill-rule:nonzero;stroke:none"
             id="path48"
             inkscape:connector-curvature="0" /></g><g
           id="g50"
           transform="translate(96.9478,-13.5371)"><path
             d="m 0,0 h -1.971 v -4.439 c 0,-0.772 0.451,-0.941 1.145,-0.941 0.262,0 0.548,0.039 0.826,0.039 v -2.35 c -0.58,-0.018 -1.161,-0.096 -1.749,-0.096 -2.726,0 -3.422,0.79 -3.422,3.445 V 0 h -1.617 v 2.07 h 1.617 v 2.952 h 3.2 V 2.07 H 0 Z"
             style="fill:#000000;fill-opacity:1;fill-rule:nonzero;stroke:none"
             id="path52"
             inkscape:connector-curvature="0" /></g><g
           id="g54"
           transform="translate(101.3389,-11.1875)"><path
             d="m 0,0 c -3.027,0 -5.135,-2.239 -5.135,-5.17 0,-2.935 2.108,-5.156 5.135,-5.156 3.027,0 5.153,2.221 5.153,5.156 C 5.153,-2.239 3.027,0 0,0"
             style="fill:#000000;fill-opacity:1;fill-rule:nonzero;stroke:none"
             id="path56"
             inkscape:connector-curvature="0" /></g><g
           id="g58"
           transform="translate(106.2773,-11.4668)"><path
             d="m 0,0 h 3.107 v -1.711 h 0.035 c 0.47,1.236 1.558,1.899 2.933,1.899 0.243,0 0.507,-0.024 0.751,-0.074 V -2.801 C 6.414,-2.693 6.038,-2.62 5.603,-2.62 4.024,-2.62 3.197,-3.708 3.197,-4.927 V -9.762 H 0 Z"
             style="fill:#000000;fill-opacity:1;fill-rule:nonzero;stroke:none"
             id="path60"
             inkscape:connector-curvature="0" /></g><g
           id="g62"
           transform="translate(36.5967,-11.4668)"><path
             d="m 0,0 h 3.106 v -1.711 h 0.037 c 0.468,1.236 1.561,1.899 2.935,1.899 0.244,0 0.509,-0.024 0.749,-0.074 V -2.801 C 6.415,-2.693 6.042,-2.62 5.604,-2.62 4.029,-2.62 3.198,-3.708 3.198,-4.927 V -9.762 H 0 Z"
             style="fill:#000000;fill-opacity:1;fill-rule:nonzero;stroke:none"
             id="path64"
             inkscape:connector-curvature="0" /></g><g
           id="g66"
           transform="translate(45.4766,-17.1309)"><path
             d="m 0,0 c 0.055,-1.335 0.825,-2.219 2.181,-2.219 0.769,0 1.524,0.361 1.823,1.073 H 6.997 C 6.411,-3.403 4.326,-4.383 2.145,-4.383 c -3.181,0 -5.345,1.922 -5.345,5.193 0,2.99 2.39,5.133 5.27,5.133 3.498,0 5.245,-2.631 5.096,-5.943 z"
             style="fill:#000000;fill-opacity:1;fill-rule:nonzero;stroke:none"
             id="path68"
             inkscape:connector-curvature="0" /></g><g
           id="g70"
           transform="translate(55.5596,-17.1309)"><path
             d="m 0,0 c 0.055,-1.335 0.826,-2.219 2.182,-2.219 0.769,0 1.522,0.361 1.823,1.073 h 2.991 c -0.582,-2.257 -2.67,-3.237 -4.851,-3.237 -3.179,0 -5.341,1.922 -5.341,5.193 0,2.99 2.384,5.133 5.266,5.133 3.497,0 5.247,-2.631 5.097,-5.943 z"
             style="fill:#000000;fill-opacity:1;fill-rule:nonzero;stroke:none"
             id="path72"
             inkscape:connector-curvature="0" /></g><g
           id="g74"
           transform="translate(36.0156,-10.0605)"><path
             d="m 0,0 c 0.283,0 0.564,-0.018 0.864,-0.055 v 2.259 c -0.509,0.02 -1.035,0.055 -1.543,0.055 -2.725,0 -3.704,-0.865 -3.704,-3.665 h -1.541 v -2.071 h 1.541 v -7.691 h 3.195 v 7.691 h 1.919 v 2.071 h -1.919 v 0.431 C -1.188,-0.092 -0.735,0 0,0"
             style="fill:#000000;fill-opacity:1;fill-rule:nonzero;stroke:none"
             id="path76"
             inkscape:connector-curvature="0" /></g><g
           id="g78"
           transform="translate(26.939,-14.5703)"><path
             d="m 0,0 c 0,-3.982 -3.228,-7.212 -7.211,-7.212 -3.983,0 -7.212,3.23 -7.212,7.212 0,3.981 3.229,7.21 7.212,7.21 C -3.228,7.21 0,3.981 0,0"
             style="fill:#ffffff;fill-opacity:1;fill-rule:nonzero;stroke:none"
             id="path80"
             inkscape:connector-curvature="0" /></g><g
           id="g82"
           transform="translate(22.23,-17.8486)"><path
             d="m 0,0 0.019,-0.013 c 0,0 -0.007,0.005 -0.013,0.01 -0.001,0 -0.004,0 -0.006,0.003 m -3.204,1.693 c -0.35,-0.123 -0.816,0.196 -1.023,0.356 -0.177,0.203 -1.242,1.338 -1.365,1.48 -0.266,0.307 -0.063,0.942 0.594,1.161 0.186,0.063 0.471,0.068 0.644,-0.125 0.776,-0.928 1.586,-1.918 1.646,-2.109 0.1,-0.333 -0.084,-0.62 -0.496,-0.763 m 0.682,8.825 c -0.659,0 -1.294,-0.086 -1.9,-0.246 0.249,-0.021 0.412,-0.178 0.497,-0.492 0,0 1.356,-4.485 1.518,-4.989 0.159,-0.506 0.35,-1.059 0.35,-1.059 C -2.164,3.643 -2.262,3.529 -2.336,3.38 -2.476,3.089 -2.552,2.853 -2.585,2.617 c -0.21,0.36 -1.033,1.368 -1.589,2.04 0,0 -0.036,0.446 -0.155,0.873 -0.12,0.425 -0.886,3.309 -0.886,3.309 C -5.351,9.375 -5.294,9.841 -5,10.094 -7.829,9.093 -9.854,6.425 -9.854,3.286 c 0,-2.85 1.674,-5.315 4.108,-6.493 -0.25,0.366 -0.538,0.937 -0.673,1.743 -0.224,1.325 -0.268,2.183 -0.436,2.922 -0.223,0.988 -0.156,1.217 0.184,1.652 0.168,0.215 0.359,0.348 0.537,0.407 0.178,0.047 0.362,-0.059 0.43,-0.135 C -5.276,2.924 -4.458,2.044 -4.358,1.919 -4.16,1.687 -4.133,1.395 -4.28,1.047 -4.338,0.906 -4.498,0.843 -4.623,0.813 -4.906,0.747 -5.227,0.806 -5.337,0.9 c -0.23,0.193 -1.35,1.217 -1.35,1.166 0,-0.269 0.833,-0.928 1.229,-1.305 0.161,-0.157 0.558,-0.201 0.879,-0.126 0.238,0.056 0.4,0.174 0.471,0.343 0.11,0.259 0.135,0.501 0.076,0.717 0.26,-0.15 0.595,-0.278 0.891,-0.176 0.288,0.1 0.462,0.255 0.556,0.422 0.019,-0.192 0.05,-0.407 0.091,-0.663 0.099,-0.646 0.22,-1.007 0.293,-1.222 0.027,-0.08 0.054,-0.163 0.051,-0.189 -0.002,-0.005 -0.005,-0.009 -0.011,-0.014 -0.17,-0.239 -0.422,-0.628 -0.582,-1.111 -0.106,-0.321 -0.186,-0.758 -0.196,-1.169 -0.005,-0.144 0,-0.367 0.042,-0.367 0.044,10e-4 0.038,0.228 0.054,0.367 0.045,0.416 0.112,0.835 0.233,1.137 0.159,0.392 0.37,0.712 0.6,1.035 0.01,0.012 0.015,0.021 0.02,0.026 0.053,0.079 0.024,0.166 -0.034,0.341 -0.072,0.211 -0.188,0.562 -0.288,1.195 -0.143,0.933 -0.198,1.284 0.145,1.993 0.276,0.576 1.01,0.583 1.168,0.517 0.061,-0.033 0.065,-0.384 0.072,-0.697 0.008,-0.349 0.015,-0.782 0.073,-1.309 0.072,-0.665 0.344,-1.184 0.589,-1.486 0.199,-0.24 0.358,-0.347 0.397,-0.31 0.037,0.036 -0.136,0.167 -0.313,0.443 -0.196,0.304 -0.421,0.763 -0.488,1.373 -0.058,0.517 -0.065,0.948 -0.071,1.294 -0.012,0.526 -0.016,0.789 -0.187,0.86 -0.085,0.037 -0.264,0.057 -0.47,0.03 l 1.353,4.533 c 0.236,0.817 0.485,1.151 1.007,1.098 0.005,0 0.01,-0.004 0.017,-0.005 -1.041,0.558 -2.233,0.877 -3.502,0.877"
             style="fill:#000000;fill-opacity:1;fill-rule:nonzero;stroke:none"
             id="path84"
             inkscape:connector-curvature="0" /></g><g
           id="g86"
           transform="translate(23.603,-8.4375)"><path
             d="m 0,0 c 0.174,-0.181 0.245,-0.433 0.171,-0.7 l -1.215,-5.404 c -0.074,-0.419 -0.197,-1.288 -0.086,-1.881 0.149,-0.809 0.468,-1.9 0.235,-3.106 -0.125,-0.64 -0.318,-1.336 -0.641,-1.878 2.889,0.969 4.97,3.667 4.97,6.844 C 3.434,-3.544 2.063,-1.279 0,0"
             style="fill:#000000;fill-opacity:1;fill-rule:nonzero;stroke:none"
             id="path88"
             inkscape:connector-curvature="0" /></g><path
           d="m 164.256,-11.693 h 2.498 v -9.587 h -2.498 z"
           style="fill:#000000;fill-opacity:1;fill-rule:nonzero;stroke:none"
           id="path90"
           inkscape:connector-curvature="0" /><g
           id="g92"
           transform="translate(168.3911,-14.3115)"><path
             d="m 0,0 h 2.215 v -0.953 h 0.027 c 0.416,0.699 1.155,1.155 2.001,1.155 0.873,0 1.652,-0.282 2.028,-1.128 0.55,0.738 1.235,1.128 2.175,1.128 2.216,0 2.457,-1.679 2.457,-3.008 V -6.969 H 8.621 v 4.096 c 0,0.752 -0.363,1.194 -0.954,1.194 -0.98,0 -1.074,-0.751 -1.074,-1.879 V -6.969 H 4.31 v 3.961 c 0,0.82 -0.242,1.329 -0.859,1.329 -0.819,0 -1.169,-0.469 -1.169,-1.892 V -6.969 H 0 Z"
             style="fill:#000000;fill-opacity:1;fill-rule:nonzero;stroke:none"
             id="path94"
             inkscape:connector-curvature="0" /></g><g
           id="g96"
           transform="translate(183.6812,-20.0713)"><path
             d="M 0,0 C 1.088,0 1.451,0.617 1.396,2.055 1.075,1.853 0.483,1.813 -0.013,1.678 -0.524,1.557 -0.954,1.343 -0.954,0.792 -0.954,0.228 -0.51,0 0,0 m -2.954,3.611 c 0.04,0.913 0.47,1.505 1.087,1.868 0.618,0.348 1.424,0.483 2.216,0.483 1.652,0 3.25,-0.362 3.25,-2.337 V 0.577 c 0,-0.591 0,-1.236 0.269,-1.786 H 1.571 c -0.08,0.214 -0.107,0.43 -0.134,0.658 -0.591,-0.618 -1.463,-0.859 -2.296,-0.859 -1.329,0 -2.377,0.671 -2.377,2.107 0,2.271 2.47,2.095 4.055,2.417 0.389,0.081 0.605,0.216 0.605,0.646 0,0.523 -0.632,0.724 -1.102,0.724 -0.631,0 -1.033,-0.281 -1.141,-0.873 z"
             style="fill:#000000;fill-opacity:1;fill-rule:nonzero;stroke:none"
             id="path98"
             inkscape:connector-curvature="0" /></g><g
           id="g100"
           transform="translate(191.9907,-15.8555)"><path
             d="m 0,0 c -1.007,0 -1.33,-0.886 -1.33,-1.745 0,-0.819 0.376,-1.639 1.316,-1.639 0.967,0 1.384,0.751 1.384,1.625 C 1.37,-0.872 1.02,0 0,0 m 3.532,-4.579 c 0,-1.142 -0.215,-3.29 -3.478,-3.29 -1.625,0 -3.156,0.362 -3.425,2.229 h 2.283 c 0.054,-0.308 0.174,-0.497 0.389,-0.604 0.202,-0.108 0.484,-0.148 0.833,-0.148 1.088,0 1.196,0.766 1.196,1.625 v 0.658 H 1.303 c -0.417,-0.644 -1.115,-1.02 -1.854,-1.02 -2.108,0 -3.061,1.503 -3.061,3.464 0,1.853 1.088,3.411 3.061,3.411 0.833,0 1.464,-0.362 1.867,-1.075 h 0.027 v 0.873 h 2.189 z"
             style="fill:#000000;fill-opacity:1;fill-rule:nonzero;stroke:none"
             id="path102"
             inkscape:connector-curvature="0" /></g><g
           id="g104"
           transform="translate(201.7637,-17.0771)"><path
             d="M 0,0 C -0.041,0.779 -0.591,1.423 -1.357,1.423 -2.162,1.423 -2.7,0.846 -2.833,0 Z m -2.833,-1.275 c 0.04,-0.954 0.59,-1.585 1.557,-1.585 0.55,0 1.088,0.255 1.303,0.765 h 2.135 c -0.416,-1.612 -1.907,-2.309 -3.465,-2.309 -2.269,0 -3.813,1.369 -3.813,3.706 0,2.135 1.705,3.666 3.759,3.666 2.498,0 3.747,-1.881 3.639,-4.243 z"
             style="fill:#000000;fill-opacity:1;fill-rule:nonzero;stroke:none"
             id="path106"
             inkscape:connector-curvature="0" /></g><g
           id="g108"
           transform="translate(206.9575,-18.9844)"><path
             d="m 0,0 c 0,-0.349 0.147,-0.604 0.376,-0.778 0.215,-0.162 0.523,-0.243 0.846,-0.243 0.443,0 1.074,0.188 1.074,0.74 0,0.537 -0.712,0.643 -1.115,0.737 -1.436,0.363 -3.236,0.403 -3.236,2.284 0,1.679 1.813,2.135 3.182,2.135 1.531,0 3.13,-0.443 3.21,-2.257 H 2.229 c 0,0.296 -0.107,0.485 -0.295,0.605 -0.188,0.121 -0.444,0.174 -0.726,0.174 -0.375,0 -0.98,-0.04 -0.98,-0.523 0,-0.658 1.531,-0.779 2.578,-1.007 1.41,-0.282 1.773,-1.303 1.773,-1.881 0,-1.866 -1.773,-2.483 -3.344,-2.483 -1.652,0 -3.343,0.551 -3.41,2.497 z"
             style="fill:#000000;fill-opacity:1;fill-rule:nonzero;stroke:none"
             id="path110"
             inkscape:connector-curvature="0" /></g><g
           id="g112"
           transform="translate(219.7363,-20.0713)"><path
             d="M 0,0 C 1.088,0 1.451,0.617 1.396,2.055 1.075,1.853 0.483,1.813 -0.013,1.678 -0.524,1.557 -0.954,1.343 -0.954,0.792 -0.954,0.228 -0.51,0 0,0 m -2.954,3.611 c 0.04,0.913 0.47,1.505 1.087,1.868 0.618,0.348 1.424,0.483 2.216,0.483 1.652,0 3.25,-0.362 3.25,-2.337 V 0.577 c 0,-0.591 0,-1.236 0.269,-1.786 H 1.571 c -0.08,0.214 -0.107,0.43 -0.134,0.658 -0.591,-0.618 -1.463,-0.859 -2.296,-0.859 -1.329,0 -2.377,0.671 -2.377,2.107 0,2.271 2.47,2.095 4.055,2.417 0.389,0.081 0.605,0.216 0.605,0.646 0,0.523 -0.632,0.724 -1.102,0.724 -0.631,0 -1.033,-0.281 -1.141,-0.873 z"
             style="fill:#000000;fill-opacity:1;fill-rule:nonzero;stroke:none"
             id="path114"
             inkscape:connector-curvature="0" /></g><g
           id="g116"
           transform="translate(224.917,-14.3115)"><path
             d="m 0,0 h 2.215 v -1.222 h 0.027 c 0.336,0.886 1.115,1.357 2.095,1.357 0.175,0 0.363,-0.014 0.538,-0.054 V -2 c -0.296,0.08 -0.564,0.134 -0.873,0.134 -1.128,0 -1.719,-0.78 -1.719,-1.652 V -6.969 H 0 Z"
             style="fill:#000000;fill-opacity:1;fill-rule:nonzero;stroke:none"
             id="path118"
             inkscape:connector-curvature="0" /></g><g
           id="g120"
           transform="translate(235.0933,-17.0771)"><path
             d="M 0,0 C -0.041,0.779 -0.591,1.423 -1.357,1.423 -2.162,1.423 -2.7,0.846 -2.833,0 Z m -2.833,-1.275 c 0.04,-0.954 0.59,-1.585 1.557,-1.585 0.55,0 1.088,0.255 1.303,0.765 h 2.135 c -0.416,-1.612 -1.907,-2.309 -3.465,-2.309 -2.269,0 -3.814,1.369 -3.814,3.706 0,2.135 1.706,3.666 3.76,3.666 2.498,0 3.747,-1.881 3.639,-4.243 z"
             style="fill:#000000;fill-opacity:1;fill-rule:nonzero;stroke:none"
             id="path122"
             inkscape:connector-curvature="0" /></g><g
           id="g124"
           transform="translate(244.9448,-17.7227)"><path
             d="m 0,0 c 0,-1.222 0.349,-2.013 1.383,-2.013 1.02,0 1.37,1.06 1.37,2.013 0,0.887 -0.35,1.867 -1.357,1.867 C 0.778,1.867 0,1.438 0,0 m -2.202,3.411 h 2.175 V 2.605 H 0 c 0.443,0.659 1.114,1.008 1.92,1.008 2.189,0 3.115,-1.881 3.115,-3.841 0,-1.812 -0.966,-3.531 -2.94,-3.531 -0.86,0 -1.517,0.321 -1.988,0.953 H 0.081 v -3.088 h -2.283 z"
             style="fill:#000000;fill-opacity:1;fill-rule:nonzero;stroke:none"
             id="path126"
             inkscape:connector-curvature="0" /></g><g
           id="g128"
           transform="translate(251.2798,-14.3115)"><path
             d="m 0,0 h 2.215 v -1.222 h 0.027 c 0.336,0.886 1.115,1.357 2.095,1.357 0.175,0 0.363,-0.014 0.538,-0.054 V -2 c -0.296,0.08 -0.564,0.134 -0.873,0.134 -1.128,0 -1.719,-0.78 -1.719,-1.652 V -6.969 H 0 Z"
             style="fill:#000000;fill-opacity:1;fill-rule:nonzero;stroke:none"
             id="path130"
             inkscape:connector-curvature="0" /></g><g
           id="g132"
           transform="translate(260.0054,-19.7354)"><path
             d="M 0,0 C 1.061,0 1.397,1.047 1.397,1.933 1.397,2.819 1.061,3.88 0,3.88 -1.061,3.88 -1.383,2.819 -1.383,1.933 -1.383,1.047 -1.061,0 0,0 m 0,5.626 c 2.162,0 3.68,-1.599 3.68,-3.693 0,-2.095 -1.518,-3.679 -3.68,-3.679 -2.162,0 -3.666,1.584 -3.666,3.679 0,2.094 1.504,3.693 3.666,3.693"
             style="fill:#000000;fill-opacity:1;fill-rule:nonzero;stroke:none"
             id="path134"
             inkscape:connector-curvature="0" /></g><g
           id="g136"
           transform="translate(267.0796,-17.7227)"><path
             d="m 0,0 c 0,-1.222 0.349,-2.013 1.383,-2.013 1.02,0 1.37,1.06 1.37,2.013 0,0.887 -0.35,1.867 -1.357,1.867 C 0.778,1.867 0,1.438 0,0 m -2.202,3.411 h 2.175 V 2.605 H 0 c 0.443,0.659 1.114,1.008 1.92,1.008 2.189,0 3.115,-1.881 3.115,-3.841 0,-1.812 -0.966,-3.531 -2.94,-3.531 -0.86,0 -1.518,0.321 -1.988,0.953 H 0.08 v -3.088 h -2.282 z"
             style="fill:#000000;fill-opacity:1;fill-rule:nonzero;stroke:none"
             id="path138"
             inkscape:connector-curvature="0" /></g><g
           id="g140"
           transform="translate(278.1143,-17.0771)"><path
             d="M 0,0 C -0.041,0.779 -0.591,1.423 -1.356,1.423 -2.162,1.423 -2.7,0.846 -2.833,0 Z m -2.833,-1.275 c 0.04,-0.954 0.59,-1.585 1.557,-1.585 0.55,0 1.088,0.255 1.302,0.765 h 2.136 c -0.416,-1.612 -1.907,-2.309 -3.465,-2.309 -2.269,0 -3.814,1.369 -3.814,3.706 0,2.135 1.706,3.666 3.761,3.666 2.497,0 3.746,-1.881 3.638,-4.243 z"
             style="fill:#000000;fill-opacity:1;fill-rule:nonzero;stroke:none"
             id="path142"
             inkscape:connector-curvature="0" /></g><g
           id="g144"
           transform="translate(281.6157,-14.3115)"><path
             d="m 0,0 h 2.216 v -1.222 h 0.026 c 0.336,0.886 1.115,1.357 2.095,1.357 0.175,0 0.363,-0.014 0.538,-0.054 V -2 c -0.296,0.08 -0.564,0.134 -0.873,0.134 -1.128,0 -1.719,-0.78 -1.719,-1.652 V -6.969 H 0 Z"
             style="fill:#000000;fill-opacity:1;fill-rule:nonzero;stroke:none"
             id="path146"
             inkscape:connector-curvature="0" /></g><g
           id="g148"
           transform="translate(291.457,-15.7881)"><path
             d="m 0,0 h -1.41 v -3.17 c 0,-0.55 0.322,-0.671 0.819,-0.671 0.188,0 0.389,0.028 0.591,0.028 v -1.679 c -0.417,-0.014 -0.833,-0.068 -1.249,-0.068 -1.947,0 -2.444,0.564 -2.444,2.458 V 0 h -1.155 v 1.477 h 1.155 V 3.585 H -1.41 V 1.477 H 0 Z"
             style="fill:#000000;fill-opacity:1;fill-rule:nonzero;stroke:none"
             id="path150"
             inkscape:connector-curvature="0" /></g><g
           id="g152"
           transform="translate(296.2754,-21.8975)"><path
             d="m 0,0 c -0.55,-1.531 -1.369,-1.719 -2.914,-1.719 h -1.074 v 1.853 h 0.792 c 0.524,0 0.914,0.296 0.914,0.779 0,0.376 -0.444,1.449 -0.578,1.825 l -1.799,4.848 h 2.417 l 1.316,-4.538 h 0.027 l 1.316,4.538 h 2.336 z"
             style="fill:#000000;fill-opacity:1;fill-rule:nonzero;stroke:none"
             id="path154"
             inkscape:connector-curvature="0" /></g><g
           id="g156"
           transform="translate(307.2422,-19.7354)"><path
             d="M 0,0 C 1.061,0 1.397,1.047 1.397,1.933 1.397,2.819 1.061,3.88 0,3.88 -1.061,3.88 -1.383,2.819 -1.383,1.933 -1.383,1.047 -1.061,0 0,0 m 0,5.626 c 2.162,0 3.679,-1.599 3.679,-3.693 0,-2.095 -1.517,-3.679 -3.679,-3.679 -2.162,0 -3.666,1.584 -3.666,3.679 0,2.094 1.504,3.693 3.666,3.693"
             style="fill:#000000;fill-opacity:1;fill-rule:nonzero;stroke:none"
             id="path158"
             inkscape:connector-curvature="0" /></g><g
           id="g160"
           transform="translate(312.6108,-15.7881)"><path
             d="M 0,0 H -1.101 V 1.477 H 0 c 0,2.001 0.698,2.618 2.645,2.618 0.363,0 0.739,-0.027 1.101,-0.04 V 2.443 C 3.531,2.471 3.33,2.484 3.128,2.484 2.605,2.484 2.283,2.417 2.283,1.786 V 1.477 H 3.652 V 0 H 2.283 V -5.492 H 0 Z"
             style="fill:#000000;fill-opacity:1;fill-rule:nonzero;stroke:none"
             id="path162"
             inkscape:connector-curvature="0" /></g><g
           id="g164"
           transform="translate(325.5117,-15.7881)"><path
             d="m 0,0 h -1.41 v -3.17 c 0,-0.55 0.323,-0.671 0.819,-0.671 0.188,0 0.39,0.028 0.591,0.028 v -1.679 c -0.416,-0.014 -0.833,-0.068 -1.249,-0.068 -1.947,0 -2.443,0.564 -2.443,2.458 V 0 h -1.155 v 1.477 h 1.155 V 3.585 H -1.41 V 1.477 H 0 Z"
             style="fill:#000000;fill-opacity:1;fill-rule:nonzero;stroke:none"
             id="path166"
             inkscape:connector-curvature="0" /></g><g
           id="g168"
           transform="translate(326.5313,-11.6934)"><path
             d="m 0,0 h 2.282 v -3.571 h 0.027 c 0.349,0.712 1.289,1.155 2.122,1.155 2.323,0 2.51,-1.692 2.51,-2.7 V -9.587 H 4.658 v 3.37 c 0,0.953 0.109,1.92 -1.14,1.92 -0.86,0 -1.236,-0.724 -1.236,-1.49 v -3.8 H 0 Z"
             style="fill:#000000;fill-opacity:1;fill-rule:nonzero;stroke:none"
             id="path170"
             inkscape:connector-curvature="0" /></g><g
           id="g172"
           transform="translate(339.7686,-17.0771)"><path
             d="M 0,0 C -0.04,0.779 -0.592,1.423 -1.357,1.423 -2.163,1.423 -2.7,0.846 -2.834,0 Z m -2.834,-1.275 c 0.04,-0.954 0.591,-1.585 1.558,-1.585 0.55,0 1.088,0.255 1.302,0.765 h 2.135 c -0.416,-1.612 -1.906,-2.309 -3.465,-2.309 -2.269,0 -3.812,1.369 -3.812,3.706 0,2.135 1.705,3.666 3.759,3.666 2.498,0 3.747,-1.881 3.638,-4.243 z"
             style="fill:#000000;fill-opacity:1;fill-rule:nonzero;stroke:none"
             id="path174"
             inkscape:connector-curvature="0" /></g><g
           id="g176"
           transform="translate(349.3652,-17.7227)"><path
             d="m 0,0 c 0,-0.953 0.349,-2.013 1.396,-2.013 1.114,0 1.356,1.06 1.356,1.947 0,1.006 -0.363,1.933 -1.356,1.933 C 0.349,1.867 0,0.887 0,0 M 4.953,-3.558 H 2.779 v 0.806 H 2.752 C 2.309,-3.41 1.637,-3.759 0.831,-3.759 c -2.188,0 -3.114,1.88 -3.114,3.84 0,1.814 0.967,3.532 2.939,3.532 0.86,0 1.519,-0.322 1.989,-0.954 h 0.027 v 3.37 h 2.281 z"
             style="fill:#000000;fill-opacity:1;fill-rule:nonzero;stroke:none"
             id="path178"
             inkscape:connector-curvature="0" /></g><g
           id="g180"
           transform="translate(360.6543,-17.0771)"><path
             d="M 0,0 C -0.04,0.779 -0.592,1.423 -1.357,1.423 -2.162,1.423 -2.699,0.846 -2.832,0 Z m -2.832,-1.275 c 0.039,-0.954 0.589,-1.585 1.557,-1.585 0.55,0 1.087,0.255 1.302,0.765 h 2.135 c -0.416,-1.612 -1.907,-2.309 -3.465,-2.309 -2.268,0 -3.812,1.369 -3.812,3.706 0,2.135 1.705,3.666 3.758,3.666 2.498,0 3.748,-1.881 3.64,-4.243 z"
             style="fill:#000000;fill-opacity:1;fill-rule:nonzero;stroke:none"
             id="path182"
             inkscape:connector-curvature="0" /></g><g
           id="g184"
           transform="translate(365.8486,-18.9844)"><path
             d="m 0,0 c 0,-0.349 0.147,-0.604 0.376,-0.778 0.215,-0.162 0.523,-0.243 0.846,-0.243 0.443,0 1.074,0.188 1.074,0.74 0,0.537 -0.713,0.643 -1.114,0.737 -1.438,0.363 -3.238,0.403 -3.238,2.284 0,1.679 1.814,2.135 3.184,2.135 1.53,0 3.129,-0.443 3.209,-2.257 H 2.229 c 0,0.296 -0.107,0.485 -0.294,0.605 -0.19,0.121 -0.446,0.174 -0.727,0.174 -0.375,0 -0.979,-0.04 -0.979,-0.523 0,-0.658 1.53,-0.779 2.578,-1.007 1.409,-0.282 1.772,-1.303 1.772,-1.881 0,-1.866 -1.772,-2.483 -3.344,-2.483 -1.652,0 -3.343,0.551 -3.41,2.497 z"
             style="fill:#000000;fill-opacity:1;fill-rule:nonzero;stroke:none"
             id="path186"
             inkscape:connector-curvature="0" /></g><path
           d="m 371.62,-14.312 h 2.284 v -6.969 h -2.284 z m 2.284,0.874 h -2.284 v 1.745 h 2.284 z"
           style="fill:#000000;fill-opacity:1;fill-rule:nonzero;stroke:none"
           id="path188"
           inkscape:connector-curvature="0" /><g
           id="g190"
           transform="translate(378.7217,-15.8555)"><path
             d="m 0,0 c -1.007,0 -1.329,-0.886 -1.329,-1.745 0,-0.819 0.375,-1.639 1.315,-1.639 0.968,0 1.384,0.751 1.384,1.625 C 1.37,-0.872 1.021,0 0,0 m 3.532,-4.579 c 0,-1.142 -0.215,-3.29 -3.478,-3.29 -1.625,0 -3.155,0.362 -3.424,2.229 h 2.283 c 0.053,-0.308 0.174,-0.497 0.389,-0.604 0.202,-0.108 0.484,-0.148 0.833,-0.148 1.088,0 1.195,0.766 1.195,1.625 v 0.658 H 1.304 c -0.417,-0.644 -1.116,-1.02 -1.854,-1.02 -2.109,0 -3.062,1.503 -3.062,3.464 0,1.853 1.088,3.411 3.062,3.411 0.833,0 1.463,-0.362 1.867,-1.075 h 0.026 v 0.873 h 2.189 z"
             style="fill:#000000;fill-opacity:1;fill-rule:nonzero;stroke:none"
             id="path192"
             inkscape:connector-curvature="0" /></g><g
           id="g194"
           transform="translate(383.7148,-14.3115)"><path
             d="m 0,0 h 2.215 v -0.953 h 0.027 c 0.417,0.712 1.357,1.155 2.19,1.155 2.322,0 2.511,-1.692 2.511,-2.7 V -6.969 H 4.659 v 3.37 c 0,0.953 0.108,1.92 -1.14,1.92 -0.86,0 -1.238,-0.724 -1.238,-1.49 v -3.8 H 0 Z"
             style="fill:#000000;fill-opacity:1;fill-rule:nonzero;stroke:none"
             id="path196"
             inkscape:connector-curvature="0" /></g><g
           id="g198"
           transform="translate(396.9521,-17.0771)"><path
             d="M 0,0 C -0.04,0.779 -0.591,1.423 -1.356,1.423 -2.162,1.423 -2.7,0.846 -2.834,0 Z m -2.834,-1.275 c 0.04,-0.954 0.591,-1.585 1.558,-1.585 0.55,0 1.088,0.255 1.302,0.765 h 2.135 c -0.416,-1.612 -1.906,-2.309 -3.464,-2.309 -2.27,0 -3.813,1.369 -3.813,3.706 0,2.135 1.705,3.666 3.76,3.666 2.498,0 3.746,-1.881 3.638,-4.243 z"
             style="fill:#000000;fill-opacity:1;fill-rule:nonzero;stroke:none"
             id="path200"
             inkscape:connector-curvature="0" /></g><g
           id="g202"
           transform="translate(400.4531,-14.3115)"><path
             d="m 0,0 h 2.217 v -1.222 h 0.026 c 0.335,0.886 1.114,1.357 2.095,1.357 0.174,0 0.363,-0.014 0.537,-0.054 V -2 c -0.296,0.08 -0.564,0.134 -0.872,0.134 -1.13,0 -1.719,-0.78 -1.719,-1.652 V -6.969 H 0 Z"
             style="fill:#000000;fill-opacity:1;fill-rule:nonzero;stroke:none"
             id="path204"
             inkscape:connector-curvature="0" /></g><path
           d="m 404.963,-18.782 h 2.498 v -2.498 h -2.498 z"
           style="fill:#000000;fill-opacity:1;fill-rule:nonzero;stroke:none"
           id="path206"
           inkscape:connector-curvature="0" /><g
           id="g208"
           transform="translate(422.7256,-15.1172)"><path
             d="m 0,0 c -0.136,0.968 -0.886,1.478 -1.935,1.478 -1.609,0 -2.228,-1.424 -2.228,-2.847 0,-1.424 0.619,-2.847 2.228,-2.847 1.169,0 1.841,0.671 1.935,1.773 h 2.498 c -0.136,-2.471 -1.948,-3.921 -4.38,-3.921 -2.899,0 -4.779,2.216 -4.779,4.995 0,2.78 1.88,4.995 4.779,4.995 2.07,0 4.311,-1.315 4.38,-3.626 z"
             style="fill:#000000;fill-opacity:1;fill-rule:nonzero;stroke:none"
             id="path210"
             inkscape:connector-curvature="0" /></g><g
           id="g212"
           transform="translate(426.4551,-11.6934)"><path
             d="M 0,0 H 2.283 V -3.571 H 2.31 c 0.348,0.712 1.288,1.155 2.12,1.155 2.324,0 2.511,-1.692 2.511,-2.7 V -9.587 H 4.66 v 3.37 c 0,0.953 0.108,1.92 -1.142,1.92 -0.86,0 -1.235,-0.724 -1.235,-1.49 v -3.8 H 0 Z"
             style="fill:#000000;fill-opacity:1;fill-rule:nonzero;stroke:none"
             id="path214"
             inkscape:connector-curvature="0" /></g><g
           id="g216"
           transform="translate(439.6914,-17.0771)"><path
             d="M 0,0 C -0.039,0.779 -0.591,1.423 -1.356,1.423 -2.162,1.423 -2.698,0.846 -2.834,0 Z m -2.834,-1.275 c 0.04,-0.954 0.592,-1.585 1.559,-1.585 0.55,0 1.086,0.255 1.302,0.765 h 2.135 c -0.416,-1.612 -1.906,-2.309 -3.465,-2.309 -2.267,0 -3.812,1.369 -3.812,3.706 0,2.135 1.705,3.666 3.759,3.666 2.498,0 3.745,-1.881 3.638,-4.243 z"
             style="fill:#000000;fill-opacity:1;fill-rule:nonzero;stroke:none"
             id="path218"
             inkscape:connector-curvature="0" /></g><g
           id="g220"
           transform="translate(447.6504,-16.8623)"><path
             d="m 0,0 c -0.014,0.591 -0.535,1.007 -1.113,1.007 -1.276,0 -1.479,-1.088 -1.479,-2.055 0,-0.899 0.391,-1.825 1.358,-1.825 0.793,0 1.194,0.456 1.301,1.194 h 2.216 c -0.2,-1.866 -1.651,-2.94 -3.504,-2.94 -2.093,0 -3.652,1.436 -3.652,3.571 0,2.216 1.408,3.801 3.652,3.801 C 0.512,2.753 2.057,1.84 2.217,0 Z"
             style="fill:#000000;fill-opacity:1;fill-rule:nonzero;stroke:none"
             id="path222"
             inkscape:connector-curvature="0" /></g><g
           id="g224"
           transform="translate(451.0732,-11.6934)"><path
             d="m 0,0 h 2.283 v -4.94 l 2.081,2.322 H 7.009 L 4.458,-5.25 7.333,-9.587 H 4.578 L 2.872,-6.78 2.283,-7.358 V -9.587 H 0 Z"
             style="fill:#000000;fill-opacity:1;fill-rule:nonzero;stroke:none"
             id="path226"
             inkscape:connector-curvature="0" /></g><path
           d="m 463.342,-11.693 h 2.281 v -9.587 h -2.281 z"
           style="fill:#000000;fill-opacity:1;fill-rule:nonzero;stroke:none"
           id="path228"
           inkscape:connector-curvature="0" /><path
           d="m 467.316,-14.312 h 2.281 v -6.969 h -2.281 z m 2.282,0.874 h -2.281 v 1.745 h 2.281 z"
           style="fill:#000000;fill-opacity:1;fill-rule:nonzero;stroke:none"
           id="path230"
           inkscape:connector-curvature="0" /><g
           id="g232"
           transform="translate(475.7471,-16.8623)"><path
             d="m 0,0 c -0.013,0.591 -0.538,1.007 -1.114,1.007 -1.277,0 -1.477,-1.088 -1.477,-2.055 0,-0.899 0.388,-1.825 1.355,-1.825 0.792,0 1.196,0.456 1.303,1.194 h 2.217 c -0.203,-1.866 -1.652,-2.94 -3.508,-2.94 -2.093,0 -3.651,1.436 -3.651,3.571 0,2.216 1.411,3.801 3.651,3.801 C 0.511,2.753 2.054,1.84 2.215,0 Z"
             style="fill:#000000;fill-opacity:1;fill-rule:nonzero;stroke:none"
             id="path234"
             inkscape:connector-curvature="0" /></g><g
           id="g236"
           transform="translate(483.9492,-17.0771)"><path
             d="M 0,0 C -0.041,0.779 -0.592,1.423 -1.357,1.423 -2.163,1.423 -2.699,0.846 -2.835,0 Z m -2.835,-1.275 c 0.04,-0.954 0.591,-1.585 1.558,-1.585 0.551,0 1.088,0.255 1.303,0.765 H 2.16 c -0.414,-1.612 -1.906,-2.309 -3.464,-2.309 -2.268,0 -3.813,1.369 -3.813,3.706 0,2.135 1.706,3.666 3.76,3.666 2.498,0 3.746,-1.881 3.638,-4.243 z"
             style="fill:#000000;fill-opacity:1;fill-rule:nonzero;stroke:none"
             id="path238"
             inkscape:connector-curvature="0" /></g><g
           id="g240"
           transform="translate(487.3691,-14.3115)"><path
             d="m 0,0 h 2.217 v -0.953 h 0.027 c 0.414,0.712 1.356,1.155 2.188,1.155 2.324,0 2.511,-1.692 2.511,-2.7 V -6.969 H 4.66 v 3.37 c 0,0.953 0.108,1.92 -1.142,1.92 -0.86,0 -1.235,-0.724 -1.235,-1.49 v -3.8 H 0 Z"
             style="fill:#000000;fill-opacity:1;fill-rule:nonzero;stroke:none"
             id="path242"
             inkscape:connector-curvature="0" /></g><g
           id="g244"
           transform="translate(497.5977,-18.9844)"><path
             d="M 0,0 C 0,-0.349 0.148,-0.604 0.377,-0.778 0.592,-0.94 0.9,-1.021 1.223,-1.021 c 0.443,0 1.074,0.188 1.074,0.74 0,0.537 -0.711,0.643 -1.113,0.737 -1.438,0.363 -3.237,0.403 -3.237,2.284 0,1.679 1.813,2.135 3.182,2.135 1.529,0 3.129,-0.443 3.209,-2.257 H 2.23 C 2.23,2.914 2.123,3.103 1.934,3.223 1.746,3.344 1.492,3.397 1.211,3.397 0.834,3.397 0.229,3.357 0.229,2.874 0.229,2.216 1.76,2.095 2.807,1.867 4.217,1.585 4.58,0.564 4.58,-0.014 c 0,-1.866 -1.773,-2.483 -3.344,-2.483 -1.65,0 -3.343,0.551 -3.41,2.497 z"
             style="fill:#000000;fill-opacity:1;fill-rule:nonzero;stroke:none"
             id="path246"
             inkscape:connector-curvature="0" /></g><g
           id="g248"
           transform="translate(508.0703,-17.0771)"><path
             d="M 0,0 C -0.041,0.779 -0.59,1.423 -1.355,1.423 -2.162,1.423 -2.699,0.846 -2.834,0 Z m -2.834,-1.275 c 0.041,-0.954 0.592,-1.585 1.559,-1.585 0.548,0 1.087,0.255 1.302,0.765 h 2.135 c -0.416,-1.612 -1.908,-2.309 -3.465,-2.309 -2.269,0 -3.814,1.369 -3.814,3.706 0,2.135 1.705,3.666 3.762,3.666 2.498,0 3.746,-1.881 3.638,-4.243 z"
             style="fill:#000000;fill-opacity:1;fill-rule:nonzero;stroke:none"
             id="path250"
             inkscape:connector-curvature="0" /></g><g
           id="g252"
           transform="translate(516.2168,-15.7881)"><path
             d="M 0,0 H -1.102 V 1.477 H 0 c 0,2.001 0.697,2.618 2.645,2.618 0.363,0 0.738,-0.027 1.103,-0.04 V 2.443 C 3.531,2.471 3.33,2.484 3.129,2.484 2.604,2.484 2.283,2.417 2.283,1.786 V 1.477 H 3.652 V 0 H 2.283 V -5.492 H 0 Z"
             style="fill:#000000;fill-opacity:1;fill-rule:nonzero;stroke:none"
             id="path254"
             inkscape:connector-curvature="0" /></g><g
           id="g256"
           transform="translate(524.0176,-19.7354)"><path
             d="M 0,0 C 1.061,0 1.396,1.047 1.396,1.933 1.396,2.819 1.061,3.88 0,3.88 -1.063,3.88 -1.383,2.819 -1.383,1.933 -1.383,1.047 -1.063,0 0,0 m 0,5.626 c 2.162,0 3.68,-1.599 3.68,-3.693 0,-2.095 -1.518,-3.679 -3.68,-3.679 -2.162,0 -3.666,1.584 -3.666,3.679 0,2.094 1.504,3.693 3.666,3.693"
             style="fill:#000000;fill-opacity:1;fill-rule:nonzero;stroke:none"
             id="path258"
             inkscape:connector-curvature="0" /></g><g
           id="g260"
           transform="translate(528.9688,-14.3115)"><path
             d="m 0,0 h 2.215 v -1.222 h 0.027 c 0.338,0.886 1.115,1.357 2.096,1.357 0.174,0 0.361,-0.014 0.537,-0.054 V -2 c -0.295,0.08 -0.564,0.134 -0.873,0.134 -1.129,0 -1.719,-0.78 -1.719,-1.652 V -6.969 H 0 Z"
             style="fill:#000000;fill-opacity:1;fill-rule:nonzero;stroke:none"
             id="path262"
             inkscape:connector-curvature="0" /></g><g
           id="g264"
           transform="translate(541.0371,-17.7227)"><path
             d="m 0,0 c 0,-1.222 0.35,-2.013 1.383,-2.013 1.019,0 1.371,1.06 1.371,2.013 0,0.887 -0.352,1.867 -1.358,1.867 C 0.779,1.867 0,1.438 0,0 m -2.203,3.411 h 2.178 V 2.605 H 0 c 0.443,0.659 1.115,1.008 1.92,1.008 2.187,0 3.117,-1.881 3.117,-3.841 0,-1.812 -0.969,-3.531 -2.943,-3.531 -0.86,0 -1.518,0.321 -1.987,0.953 H 0.082 v -3.088 h -2.285 z"
             style="fill:#000000;fill-opacity:1;fill-rule:nonzero;stroke:none"
             id="path266"
             inkscape:connector-curvature="0" /></g><g
           id="g268"
           transform="translate(552.0723,-17.0771)"><path
             d="M 0,0 C -0.041,0.779 -0.59,1.423 -1.355,1.423 -2.16,1.423 -2.699,0.846 -2.832,0 Z m -2.832,-1.275 c 0.039,-0.954 0.59,-1.585 1.557,-1.585 0.55,0 1.087,0.255 1.302,0.765 h 2.135 c -0.416,-1.612 -1.908,-2.309 -3.463,-2.309 -2.271,0 -3.814,1.369 -3.814,3.706 0,2.135 1.705,3.666 3.76,3.666 2.498,0 3.746,-1.881 3.638,-4.243 z"
             style="fill:#000000;fill-opacity:1;fill-rule:nonzero;stroke:none"
             id="path270"
             inkscape:connector-curvature="0" /></g><g
           id="g272"
           transform="translate(555.5742,-14.3115)"><path
             d="m 0,0 h 2.215 v -1.222 h 0.027 c 0.338,0.886 1.115,1.357 2.096,1.357 0.174,0 0.361,-0.014 0.537,-0.054 V -2 c -0.295,0.08 -0.564,0.134 -0.873,0.134 -1.129,0 -1.719,-0.78 -1.719,-1.652 V -6.969 H 0 Z"
             style="fill:#000000;fill-opacity:1;fill-rule:nonzero;stroke:none"
             id="path274"
             inkscape:connector-curvature="0" /></g><g
           id="g276"
           transform="translate(561.2129,-14.3115)"><path
             d="m 0,0 h 2.215 v -0.953 h 0.027 c 0.416,0.699 1.154,1.155 2,1.155 0.873,0 1.653,-0.282 2.028,-1.128 0.55,0.738 1.236,1.128 2.175,1.128 2.217,0 2.459,-1.679 2.459,-3.008 V -6.969 H 8.619 v 4.096 c 0,0.752 -0.361,1.194 -0.953,1.194 -0.978,0 -1.072,-0.751 -1.072,-1.879 V -6.969 H 4.311 v 3.961 c 0,0.82 -0.243,1.329 -0.862,1.329 -0.818,0 -1.166,-0.469 -1.166,-1.892 V -6.969 H 0 Z"
             style="fill:#000000;fill-opacity:1;fill-rule:nonzero;stroke:none"
             id="path278"
             inkscape:connector-curvature="0" /></g><path
           d="m 573.723,-14.312 h 2.283 v -6.969 h -2.283 z m 2.283,0.874 h -2.283 v 1.745 h 2.283 z"
           style="fill:#000000;fill-opacity:1;fill-rule:nonzero;stroke:none"
           id="path280"
           inkscape:connector-curvature="0" /><g
           id="g282"
           transform="translate(581.8184,-15.7881)"><path
             d="m 0,0 h -1.41 v -3.17 c 0,-0.55 0.324,-0.671 0.818,-0.671 0.19,0 0.391,0.028 0.592,0.028 v -1.679 c -0.414,-0.014 -0.832,-0.068 -1.248,-0.068 -1.947,0 -2.443,0.564 -2.443,2.458 V 0 h -1.157 v 1.477 h 1.157 V 3.585 H -1.41 V 1.477 H 0 Z"
             style="fill:#000000;fill-opacity:1;fill-rule:nonzero;stroke:none"
             id="path284"
             inkscape:connector-curvature="0" /></g><g
           id="g286"
           transform="translate(587.041,-15.7881)"><path
             d="m 0,0 h -1.412 v -3.17 c 0,-0.55 0.324,-0.671 0.82,-0.671 0.19,0 0.391,0.028 0.592,0.028 v -1.679 c -0.416,-0.014 -0.834,-0.068 -1.248,-0.068 -1.949,0 -2.445,0.564 -2.445,2.458 V 0 H -4.85 v 1.477 h 1.157 v 2.108 h 2.281 V 1.477 H 0 Z"
             style="fill:#000000;fill-opacity:1;fill-rule:nonzero;stroke:none"
             id="path288"
             inkscape:connector-curvature="0" /></g><g
           id="g290"
           transform="translate(592.8398,-17.0771)"><path
             d="M 0,0 C -0.041,0.779 -0.592,1.423 -1.357,1.423 -2.162,1.423 -2.699,0.846 -2.834,0 Z m -2.834,-1.275 c 0.039,-0.954 0.592,-1.585 1.557,-1.585 0.552,0 1.088,0.255 1.304,0.765 H 2.16 c -0.414,-1.612 -1.906,-2.309 -3.463,-2.309 -2.269,0 -3.812,1.369 -3.812,3.706 0,2.135 1.705,3.666 3.758,3.666 2.498,0 3.746,-1.881 3.638,-4.243 z"
             style="fill:#000000;fill-opacity:1;fill-rule:nonzero;stroke:none"
             id="path292"
             inkscape:connector-curvature="0" /></g><g
           id="g294"
           transform="translate(598.207,-17.7227)"><path
             d="m 0,0 c 0,-0.953 0.35,-2.013 1.396,-2.013 1.116,0 1.358,1.06 1.358,1.947 0,1.006 -0.363,1.933 -1.358,1.933 C 0.35,1.867 0,0.887 0,0 M 4.955,-3.558 H 2.781 v 0.806 H 2.754 C 2.311,-3.41 1.639,-3.759 0.832,-3.759 c -2.187,0 -3.113,1.88 -3.113,3.84 0,1.814 0.967,3.532 2.939,3.532 0.86,0 1.518,-0.322 1.987,-0.954 h 0.029 v 3.37 h 2.281 z"
             style="fill:#000000;fill-opacity:1;fill-rule:nonzero;stroke:none"
             id="path296"
             inkscape:connector-curvature="0" /></g><g
           id="g298"
           transform="translate(615.875,-21.2803)"><path
             d="m 0,0 h -2.215 v 0.953 h -0.027 c -0.43,-0.711 -1.315,-1.154 -2.121,-1.154 -2.002,0 -2.578,1.154 -2.578,2.98 v 4.19 H -4.66 V 2.928 c 0,-0.927 0.404,-1.249 1.129,-1.249 0.496,0 1.248,0.322 1.248,1.557 V 6.969 H 0 Z"
             style="fill:#000000;fill-opacity:1;fill-rule:nonzero;stroke:none"
             id="path300"
             inkscape:connector-curvature="0" /></g><g
           id="g302"
           transform="translate(619.1758,-18.9844)"><path
             d="m 0,0 c 0,-0.349 0.146,-0.604 0.375,-0.778 0.215,-0.162 0.523,-0.243 0.846,-0.243 0.443,0 1.074,0.188 1.074,0.74 0,0.537 -0.711,0.643 -1.113,0.737 -1.438,0.363 -3.239,0.403 -3.239,2.284 0,1.679 1.813,2.135 3.184,2.135 1.531,0 3.129,-0.443 3.211,-2.257 H 2.229 c 0,0.296 -0.108,0.485 -0.295,0.605 -0.188,0.121 -0.446,0.174 -0.727,0.174 -0.375,0 -0.978,-0.04 -0.978,-0.523 0,-0.658 1.531,-0.779 2.578,-1.007 1.41,-0.282 1.771,-1.303 1.771,-1.881 0,-1.866 -1.771,-2.483 -3.344,-2.483 -1.652,0 -3.343,0.551 -3.41,2.497 z"
             style="fill:#000000;fill-opacity:1;fill-rule:nonzero;stroke:none"
             id="path304"
             inkscape:connector-curvature="0" /></g><g
           id="g306"
           transform="translate(629.6465,-17.0771)"><path
             d="M 0,0 C -0.039,0.779 -0.59,1.423 -1.355,1.423 -2.162,1.423 -2.697,0.846 -2.834,0 Z m -2.834,-1.275 c 0.041,-0.954 0.592,-1.585 1.559,-1.585 0.55,0 1.086,0.255 1.302,0.765 h 2.135 c -0.416,-1.612 -1.906,-2.309 -3.465,-2.309 -2.267,0 -3.812,1.369 -3.812,3.706 0,2.135 1.705,3.666 3.76,3.666 2.498,0 3.746,-1.881 3.638,-4.243 z"
             style="fill:#000000;fill-opacity:1;fill-rule:nonzero;stroke:none"
             id="path308"
             inkscape:connector-curvature="0" /></g><path
           d="m 633.176,-18.782 h 2.498 v -2.498 h -2.498 z"
           style="fill:#000000;fill-opacity:1;fill-rule:nonzero;stroke:none"
           id="path310"
           inkscape:connector-curvature="0" /></g></g><g
       id="g312"><g
         id="g314"
         clip-path="url(#clipPath318)"
         transform="translate(-90.347409,-4.9723831)"><g
           id="g1300"
           transform="matrix(0.95725578,0,0,1.0016646,345.4396,28.663448)"
           style="fill:#60b9f2;fill-opacity:1"><path
             d="m 0,0 c 118.861,5.707 119.812,31.381 119.812,31.381 3.803,2.851 0,394.634 0,394.634 0,0 0,11.408 -12.363,10.461 0,0 -99.84,-0.156 -113.153,-0.156 h -0.577 c -13.315,0 -113.158,0.156 -113.158,0.156 -12.36,0.947 -12.363,-10.461 -12.363,-10.461 0,0 -3.802,-391.783 0,-394.634 0,0 0.951,-25.674 119.813,-31.381 z"
             style="fill:#60b9f2;fill-opacity:1;fill-rule:nonzero;stroke:none"
             id="path1302"
             inkscape:connector-curvature="0" /></g><g
           id="g1336"
           transform="matrix(0.96483175,0,0,0.96472527,341.15466,449.24327)"><path
             d="m 0,0 92.391,0.551 c 18.866,1.35 16.409,-8.157 16.409,-8.157 0,0 1.506,-69.972 1.506,-174.573 0,0 1.9,-11.408 -10.459,-12.359 -12.362,-0.955 -2.856,-3.254 -101.748,-7.058 h 1.064 c -98.893,3.804 -89.383,6.103 -101.746,7.058 -12.363,0.951 -10.457,12.359 -10.457,12.359 0,104.601 1.502,174.573 1.502,174.573 0,0 -2.457,9.507 16.408,8.157 L -2.743,0 Z"
             style="fill:#2d2d2d;fill-opacity:1;fill-rule:nonzero;stroke:none"
             id="path1338"
             inkscape:connector-curvature="0" /></g><g
           id="g1340"
           transform="matrix(0.96483175,0,0,0.96472527,246.01704,448.10856)"><path
             d="m 0,0 c -6.567,0 -9.242,-1.618 -10.327,-2.976 -1.139,-1.425 -0.813,-2.953 -0.798,-3.015 l 0.05,-0.479 c -0.014,-0.7 -1.502,-71.151 -1.502,-174.532 -0.029,-0.342 -0.647,-4.423 1.662,-7.348 1.458,-1.848 3.84,-2.91 7.08,-3.161 2.925,-0.225 4.637,-0.518 6.803,-0.893 7.008,-1.204 18.732,-3.222 94.266,-6.136 75.538,2.914 87.263,4.932 94.274,6.136 2.167,0.375 3.878,0.668 6.804,0.893 3.236,0.251 5.617,1.313 7.076,3.157 2.31,2.929 1.694,7.014 1.691,7.054 -0.026,103.679 -1.517,174.13 -1.531,174.83 l -0.004,0.258 0.061,0.247 c 0.007,0.036 0.337,1.564 -0.805,2.989 -1.256,1.572 -4.791,3.502 -13.67,2.849 L 95.862,-0.682 3.466,-0.13 C 2.142,-0.04 1.03,0 0,0 m 97.769,-202.277 -1.065,0.04 c -75.433,2.914 -87.28,4.953 -94.363,6.172 -2.072,0.356 -3.708,0.639 -6.459,0.853 -4.337,0.33 -7.613,1.876 -9.74,4.59 -3.313,4.235 -2.45,9.696 -2.41,9.924 -0.025,100.261 1.383,169.678 1.474,174.091 -0.243,1.295 -0.163,3.723 1.487,5.856 2.298,2.965 6.775,4.467 13.307,4.467 1.11,0 2.308,-0.044 3.61,-0.134 l 94.995,-0.548 92.38,0.551 c 1.176,0.087 2.377,0.131 3.487,0.131 6.536,0 11.009,-1.502 13.306,-4.471 1.652,-2.129 1.731,-4.557 1.489,-5.852 0.093,-4.424 1.502,-73.844 1.502,-174.395 0.025,0 0.856,-5.415 -2.439,-9.62 -2.126,-2.714 -5.399,-4.26 -9.735,-4.59 -2.75,-0.214 -4.387,-0.497 -6.459,-0.853 -7.087,-1.219 -18.932,-3.258 -94.367,-6.172 z"
             style="fill:#000000;fill-opacity:1;fill-rule:nonzero;stroke:none"
             id="path1342"
             inkscape:connector-curvature="0" /></g><path
           d="M 410.69693,424.85733 H 268.49038 V 300.09616 h 142.20655 z"
           style="fill:#8e827b;fill-opacity:1;fill-rule:nonzero;stroke:none;stroke-width:0.96477848"
           id="path1344"
           inkscape:connector-curvature="0" /><g
           id="g1386"
           transform="translate(249.18358,253.55168)"
           style="fill:#60b9f2;fill-opacity:1"><path
             d="m 0,0 c -0.465,-74.675 -0.715,-164.636 0.773,-165.755 0,0 0.638,-17.2 80.278,-21.024 h 8.034 c 79.642,3.824 80.277,21.024 80.277,21.024 1.492,1.119 1.242,91.08 0.773,165.755"
             style="fill:#60b9f2;fill-opacity:1;fill-rule:nonzero;stroke:none"
             id="path1388"
             inkscape:connector-curvature="0" /></g><g
           id="g1390"
           transform="translate(273.27148,149.84708)"
           style="fill:#ffffff"><path
             d="m 0,0 c 0,-1.662 -1.346,-3.004 -3.005,-3.004 h -13.959 c -1.658,0 -3.005,1.342 -3.005,3.004 v 57.699 c 0,1.662 1.347,3.01 3.005,3.01 H -3.005 C -1.346,60.709 0,59.361 0,57.699 Z"
             style="fill:#ffffff;fill-opacity:1;fill-rule:nonzero;stroke:none"
             id="path1392"
             inkscape:connector-curvature="0" /></g><g
           id="g1394"
           transform="translate(292.13668,188.68108)"
           style="fill:#ffffff"><path
             d="m 0,0 c 1.662,0 3.005,-1.342 3.005,-3.004 v -13.959 c 0,-1.662 -1.343,-3.005 -3.005,-3.005 h -57.699 c -1.658,0 -3.004,1.343 -3.004,3.005 v 13.959 c 0,1.662 1.346,3.004 3.004,3.004 z"
             style="fill:#ffffff;fill-opacity:1;fill-rule:nonzero;stroke:none"
             id="path1396"
             inkscape:connector-curvature="0" /></g><g
           id="g1398"
           transform="translate(446.05468,184.19278)"
           style="fill:#ff0000"><path
             d="m 0,0 c 0,-8.299 -6.727,-15.025 -15.021,-15.025 -8.301,0 -15.028,6.726 -15.028,15.025 0,8.296 6.727,15.023 15.028,15.023 C -6.727,15.023 0,8.296 0,0"
             style="fill:#ff0000;fill-opacity:1;fill-rule:nonzero;stroke:none"
             id="path1400"
             inkscape:connector-curvature="0" /></g><g
           id="g1402"
           transform="translate(397.22658,169.16738)"
           style="fill:#ffc800;fill-opacity:1"><path
             d="m 0,0 c 0,-8.295 -6.727,-15.023 -15.025,-15.023 -8.299,0 -15.027,6.728 -15.027,15.023 0,8.299 6.728,15.025 15.027,15.025 C -6.727,15.025 0,8.299 0,0"
             style="fill:#ffc800;fill-opacity:1;fill-rule:nonzero;stroke:none"
             id="path1404"
             inkscape:connector-curvature="0" /></g><g
           id="g1406"
           transform="translate(329.62108,103.80698)"><path
             d="m 0,0 c 0,-1.662 -1.259,-3.005 -2.813,-3.005 h -16.158 c -1.556,0 -2.816,1.343 -2.816,3.005 v 0.747 c 0,1.666 1.26,3.012 2.816,3.012 H -2.813 C -1.259,3.759 0,2.413 0,0.747 Z"
             style="fill:#2b2b2b;fill-opacity:1;fill-rule:nonzero;stroke:none"
             id="path1408"
             inkscape:connector-curvature="0" /></g><g
           id="g1410"
           transform="translate(368.70218,103.80698)"
           style="fill:#2b2b2b;fill-opacity:1"><path
             d="m 0,0 c 0,-1.662 -1.256,-3.005 -2.808,-3.005 h -16.164 c -1.55,0 -2.807,1.343 -2.807,3.005 v 0.747 c 0,1.666 1.257,3.012 2.807,3.012 H -2.808 C -1.256,3.759 0,2.413 0,0.747 Z"
             style="fill:#2b2b2b;fill-opacity:1;fill-rule:nonzero;stroke:none"
             id="path1412"
             inkscape:connector-curvature="0" /></g><g
           id="g1414"
           transform="translate(271.02538,178.18008)"
           style="fill:#e3dedb"><path
             d="m 0,0 c 0,-4.147 -3.363,-7.511 -7.512,-7.511 -4.15,0 -7.51,3.364 -7.51,7.511 0,4.151 3.36,7.511 7.51,7.511 C -3.363,7.511 0,4.151 0,0"
             style="fill:#e3dedb;fill-opacity:1;fill-rule:nonzero;stroke:none"
             id="path1416"
             inkscape:connector-curvature="0" /></g><g
           id="g1426"
           transform="matrix(0.96483175,0,0,0.96472527,-131.53465,17.996026)"><g
             id="g1428" /><g
             id="g1440"><g
               clip-path="url(#clipPath1432)"
               id="g1438"
               style="opacity:0.14999402"><g
                 transform="translate(383.0732,444.5913)"
                 id="g1436"><path
                   d="m 0,0 c 2.413,1.183 6.288,1.916 12.472,1.473 0,0 2.543,-0.015 6.789,-0.036 C 33.112,1.901 45.134,1.901 58.306,1.201 62.122,1.176 65.944,1.154 69.655,1.132 88.22,1.023 104.136,0.925 104.136,0.925 h 2.721 l 91.668,0.548 c 18.716,1.339 16.283,-8.092 16.283,-8.092 0,0 0.66,-30.854 1.102,-82.175 0.028,-3.208 0.055,-6.495 0.083,-9.863 0.418,-27.153 0.418,-54.198 0.306,-81.17 0,0 0.862,-5.199 -2.396,-8.847 0,0 -2.638,2.33 -7.25,6.495 C 144.29,-119.797 81.188,-56.694 7.384,-6.474 2.642,-2.326 0,0 0,0"
                   style="fill:#ffffff;fill-opacity:1;fill-rule:nonzero;stroke:none"
                   id="path1434"
                   inkscape:connector-curvature="0" /></g></g></g></g><g
           id="g1550"
           transform="translate(398.73438,93.294383)"><path
             d="m 0,0 c 0,-0.83 -0.672,-1.506 -1.508,-1.506 -0.83,0 -1.498,0.676 -1.498,1.506 0,0.827 0.668,1.502 1.498,1.502 C -0.672,1.502 0,0.827 0,0"
             style="fill:#050505;fill-opacity:1;fill-rule:nonzero;stroke:none"
             id="path1552"
             inkscape:connector-curvature="0" /></g><g
           id="g1554"
           transform="translate(406.24418,87.281683)"><path
             d="m 0,0 c 0,-0.831 -0.671,-1.499 -1.502,-1.499 -0.831,0 -1.502,0.668 -1.502,1.499 0,0.831 0.671,1.503 1.502,1.503 C -0.671,1.503 0,0.831 0,0"
             style="fill:#050505;fill-opacity:1;fill-rule:nonzero;stroke:none"
             id="path1556"
             inkscape:connector-curvature="0" /></g><g
           id="g1558"
           transform="translate(406.24418,94.796283)"><path
             d="m 0,0 c 0,-0.834 -0.671,-1.502 -1.502,-1.502 -0.831,0 -1.502,0.668 -1.502,1.502 0,0.828 0.671,1.498 1.502,1.498 C -0.671,1.498 0,0.828 0,0"
             style="fill:#050505;fill-opacity:1;fill-rule:nonzero;stroke:none"
             id="path1560"
             inkscape:connector-curvature="0" /></g><g
           id="g1562"
           transform="translate(406.24418,102.30798)"><path
             d="m 0,0 c 0,-0.828 -0.671,-1.506 -1.502,-1.506 -0.831,0 -1.502,0.678 -1.502,1.506 0,0.828 0.671,1.502 1.502,1.502 C -0.671,1.502 0,0.828 0,0"
             style="fill:#050505;fill-opacity:1;fill-rule:nonzero;stroke:none"
             id="path1564"
             inkscape:connector-curvature="0" /></g><g
           id="g1566"
           transform="translate(413.75588,103.80998)"><path
             d="m 0,0 c 0,-0.831 -0.672,-1.502 -1.498,-1.502 -0.834,0 -1.506,0.671 -1.506,1.502 0,0.828 0.672,1.499 1.506,1.499 C -0.672,1.499 0,0.828 0,0"
             style="fill:#050505;fill-opacity:1;fill-rule:nonzero;stroke:none"
             id="path1568"
             inkscape:connector-curvature="0" /></g><g
           id="g1570"
           transform="translate(421.26758,96.294383)"><path
             d="m 0,0 c 0,-0.826 -0.668,-1.498 -1.502,-1.498 -0.831,0 -1.499,0.672 -1.499,1.498 0,0.832 0.668,1.508 1.499,1.508 C -0.668,1.508 0,0.832 0,0"
             style="fill:#050505;fill-opacity:1;fill-rule:nonzero;stroke:none"
             id="path1572"
             inkscape:connector-curvature="0" /></g><g
           id="g1574"
           transform="translate(421.26758,103.80998)"><path
             d="m 0,0 c 0,-0.831 -0.668,-1.502 -1.502,-1.502 -0.831,0 -1.499,0.671 -1.499,1.502 0,0.828 0.668,1.499 1.499,1.499 C -0.668,1.499 0,0.828 0,0"
             style="fill:#050505;fill-opacity:1;fill-rule:nonzero;stroke:none"
             id="path1576"
             inkscape:connector-curvature="0" /></g><g
           id="g1578"
           transform="translate(428.78318,105.30898)"><path
             d="m 0,0 c 0,-0.827 -0.676,-1.499 -1.502,-1.499 -0.832,0 -1.508,0.672 -1.508,1.499 0,0.834 0.676,1.506 1.508,1.506 C -0.676,1.506 0,0.834 0,0"
             style="fill:#050505;fill-opacity:1;fill-rule:nonzero;stroke:none"
             id="path1580"
             inkscape:connector-curvature="0" /></g><g
           id="g1582"
           transform="translate(436.29398,54.231883)"><path
             d="m 0,0 c 0,-0.831 -0.672,-1.506 -1.503,-1.506 -0.83,0 -1.502,0.675 -1.502,1.506 0,0.828 0.672,1.498 1.502,1.498 C -0.672,1.498 0,0.828 0,0"
             style="fill:#050505;fill-opacity:1;fill-rule:nonzero;stroke:none"
             id="path1584"
             inkscape:connector-curvature="0" /></g><g
           id="g1586"
           transform="translate(436.29398,61.739683)"><path
             d="m 0,0 c 0,-0.828 -0.672,-1.502 -1.503,-1.502 -0.83,0 -1.502,0.674 -1.502,1.502 0,0.831 0.672,1.506 1.502,1.506 C -0.672,1.506 0,0.831 0,0"
             style="fill:#050505;fill-opacity:1;fill-rule:nonzero;stroke:none"
             id="path1588"
             inkscape:connector-curvature="0" /></g><g
           id="g1590"
           transform="translate(436.29398,69.251383)"><path
             d="m 0,0 c 0,-0.828 -0.672,-1.499 -1.503,-1.499 -0.83,0 -1.502,0.671 -1.502,1.499 0,0.83 0.672,1.506 1.502,1.506 C -0.672,1.506 0,0.83 0,0"
             style="fill:#050505;fill-opacity:1;fill-rule:nonzero;stroke:none"
             id="path1592"
             inkscape:connector-curvature="0" /></g><g
           id="g1594"
           transform="translate(436.29398,76.765083)"><path
             d="m 0,0 c 0,-0.826 -0.672,-1.502 -1.503,-1.502 -0.83,0 -1.502,0.676 -1.502,1.502 0,0.831 0.672,1.499 1.502,1.499 C -0.672,1.499 0,0.831 0,0"
             style="fill:#050505;fill-opacity:1;fill-rule:nonzero;stroke:none"
             id="path1596"
             inkscape:connector-curvature="0" /></g><g
           id="g1598"
           transform="translate(436.29398,84.276783)"><path
             d="m 0,0 c 0,-0.827 -0.672,-1.502 -1.503,-1.502 -0.83,0 -1.502,0.675 -1.502,1.502 0,0.828 0.672,1.506 1.502,1.506 C -0.672,1.506 0,0.828 0,0"
             style="fill:#050505;fill-opacity:1;fill-rule:nonzero;stroke:none"
             id="path1600"
             inkscape:connector-curvature="0" /></g><g
           id="g1602"
           transform="translate(436.29398,91.788483)"><path
             d="m 0,0 c 0,-0.828 -0.672,-1.499 -1.503,-1.499 -0.83,0 -1.502,0.671 -1.502,1.499 0,0.831 0.672,1.506 1.502,1.506 C -0.672,1.506 0,0.831 0,0"
             style="fill:#050505;fill-opacity:1;fill-rule:nonzero;stroke:none"
             id="path1604"
             inkscape:connector-curvature="0" /></g><g
           id="g1606"
           transform="translate(436.29398,99.300183)"><path
             d="m 0,0 c 0,-0.832 -0.672,-1.498 -1.503,-1.498 -0.83,0 -1.502,0.666 -1.502,1.498 0,0.83 0.672,1.502 1.502,1.502 C -0.672,1.502 0,0.83 0,0"
             style="fill:#050505;fill-opacity:1;fill-rule:nonzero;stroke:none"
             id="path1608"
             inkscape:connector-curvature="0" /></g><g
           id="g1610"
           transform="translate(436.29398,106.81488)"><path
             d="m 0,0 c 0,-0.827 -0.672,-1.506 -1.503,-1.506 -0.83,0 -1.502,0.679 -1.502,1.506 0,0.827 0.672,1.503 1.502,1.503 C -0.672,1.503 0,0.827 0,0"
             style="fill:#050505;fill-opacity:1;fill-rule:nonzero;stroke:none"
             id="path1612"
             inkscape:connector-curvature="0" /></g><g
           id="g1614"
           transform="translate(443.80568,108.31778)"><path
             d="m 0,0 c 0,-0.832 -0.671,-1.503 -1.503,-1.503 -0.83,0 -1.502,0.671 -1.502,1.503 0,0.826 0.672,1.502 1.502,1.502 C -0.671,1.502 0,0.826 0,0"
             style="fill:#050505;fill-opacity:1;fill-rule:nonzero;stroke:none"
             id="path1616"
             inkscape:connector-curvature="0" /></g><g
           id="g1618"
           transform="translate(443.80568,100.80218)"><path
             d="m 0,0 c 0,-0.827 -0.671,-1.502 -1.503,-1.502 -0.83,0 -1.502,0.675 -1.502,1.502 0,0.832 0.672,1.506 1.502,1.506 C -0.671,1.506 0,0.832 0,0"
             style="fill:#050505;fill-opacity:1;fill-rule:nonzero;stroke:none"
             id="path1620"
             inkscape:connector-curvature="0" /></g><g
           id="g1622"
           transform="translate(451.32028,102.30798)"><path
             d="m 0,0 c 0,-0.828 -0.675,-1.506 -1.502,-1.506 -0.832,0 -1.506,0.678 -1.506,1.506 0,0.828 0.674,1.502 1.506,1.502 C -0.675,1.502 0,0.828 0,0"
             style="fill:#050505;fill-opacity:1;fill-rule:nonzero;stroke:none"
             id="path1624"
             inkscape:connector-curvature="0" /></g><g
           id="g1626"
           transform="translate(451.32028,94.796283)"><path
             d="m 0,0 c 0,-0.834 -0.675,-1.502 -1.502,-1.502 -0.832,0 -1.506,0.668 -1.506,1.502 0,0.828 0.674,1.498 1.506,1.498 C -0.675,1.498 0,0.828 0,0"
             style="fill:#050505;fill-opacity:1;fill-rule:nonzero;stroke:none"
             id="path1628"
             inkscape:connector-curvature="0" /></g><g
           id="g1630"
           transform="translate(451.32028,87.281683)"><path
             d="m 0,0 c 0,-0.831 -0.675,-1.499 -1.502,-1.499 -0.832,0 -1.506,0.668 -1.506,1.499 0,0.831 0.674,1.503 1.506,1.503 C -0.675,1.503 0,0.831 0,0"
             style="fill:#050505;fill-opacity:1;fill-rule:nonzero;stroke:none"
             id="path1632"
             inkscape:connector-curvature="0" /></g><g
           id="g1634"
           transform="translate(451.32028,79.770883)"><path
             d="m 0,0 c 0,-0.828 -0.675,-1.507 -1.502,-1.507 -0.832,0 -1.506,0.679 -1.506,1.507 0,0.826 0.674,1.506 1.506,1.506 C -0.675,1.506 0,0.826 0,0"
             style="fill:#050505;fill-opacity:1;fill-rule:nonzero;stroke:none"
             id="path1636"
             inkscape:connector-curvature="0" /></g><g
           id="g1638"
           transform="translate(451.32028,72.259183)"><path
             d="m 0,0 c 0,-0.828 -0.675,-1.502 -1.502,-1.502 -0.832,0 -1.506,0.674 -1.506,1.502 0,0.831 0.674,1.498 1.506,1.498 C -0.675,1.498 0,0.831 0,0"
             style="fill:#050505;fill-opacity:1;fill-rule:nonzero;stroke:none"
             id="path1640"
             inkscape:connector-curvature="0" /></g><g
           id="g1642"
           transform="translate(451.32028,64.743583)"><path
             d="m 0,0 c 0,-0.826 -0.675,-1.498 -1.502,-1.498 -0.832,0 -1.506,0.672 -1.506,1.498 0,0.831 0.674,1.502 1.506,1.502 C -0.675,1.502 0,0.831 0,0"
             style="fill:#050505;fill-opacity:1;fill-rule:nonzero;stroke:none"
             id="path1644"
             inkscape:connector-curvature="0" /></g><g
           id="g1646"
           transform="translate(443.80568,93.294383)"><path
             d="m 0,0 c 0,-0.83 -0.671,-1.506 -1.503,-1.506 -0.83,0 -1.502,0.676 -1.502,1.506 0,0.827 0.672,1.502 1.502,1.502 C -0.671,1.502 0,0.827 0,0"
             style="fill:#050505;fill-opacity:1;fill-rule:nonzero;stroke:none"
             id="path1648"
             inkscape:connector-curvature="0" /></g><g
           id="g1650"
           transform="translate(443.80568,85.782583)"><path
             d="m 0,0 c 0,-0.83 -0.671,-1.506 -1.503,-1.506 -0.83,0 -1.502,0.676 -1.502,1.506 0,0.824 0.672,1.499 1.502,1.499 C -0.671,1.499 0,0.824 0,0"
             style="fill:#050505;fill-opacity:1;fill-rule:nonzero;stroke:none"
             id="path1652"
             inkscape:connector-curvature="0" /></g><g
           id="g1654"
           transform="translate(443.80568,78.264083)"><path
             d="m 0,0 c 0,-0.827 -0.671,-1.499 -1.503,-1.499 -0.83,0 -1.502,0.672 -1.502,1.499 0,0.831 0.672,1.507 1.502,1.507 C -0.671,1.507 0,0.831 0,0"
             style="fill:#050505;fill-opacity:1;fill-rule:nonzero;stroke:none"
             id="path1656"
             inkscape:connector-curvature="0" /></g><g
           id="g1658"
           transform="translate(443.80568,70.757183)"><path
             d="m 0,0 c 0,-0.831 -0.671,-1.506 -1.503,-1.506 -0.83,0 -1.502,0.675 -1.502,1.506 0,0.826 0.672,1.502 1.502,1.502 C -0.671,1.502 0,0.826 0,0"
             style="fill:#050505;fill-opacity:1;fill-rule:nonzero;stroke:none"
             id="path1660"
             inkscape:connector-curvature="0" /></g><g
           id="g1662"
           transform="translate(443.80568,63.245483)"><path
             d="m 0,0 c 0,-0.828 -0.671,-1.506 -1.503,-1.506 -0.83,0 -1.502,0.678 -1.502,1.506 0,0.827 0.672,1.498 1.502,1.498 C -0.671,1.498 0,0.827 0,0"
             style="fill:#050505;fill-opacity:1;fill-rule:nonzero;stroke:none"
             id="path1664"
             inkscape:connector-curvature="0" /></g><g
           id="g1666"
           transform="translate(443.80568,55.729883)"><path
             d="m 0,0 c 0,-0.83 -0.671,-1.498 -1.503,-1.498 -0.83,0 -1.502,0.668 -1.502,1.498 0,0.832 0.672,1.503 1.502,1.503 C -0.671,1.503 0,0.832 0,0"
             style="fill:#050505;fill-opacity:1;fill-rule:nonzero;stroke:none"
             id="path1668"
             inkscape:connector-curvature="0" /></g><g
           id="g1670"
           transform="translate(428.78318,97.802183)"><path
             d="m 0,0 c 0,-0.832 -0.676,-1.508 -1.502,-1.508 -0.832,0 -1.508,0.676 -1.508,1.508 0,0.826 0.676,1.498 1.508,1.498 C -0.676,1.498 0,0.826 0,0"
             style="fill:#050505;fill-opacity:1;fill-rule:nonzero;stroke:none"
             id="path1672"
             inkscape:connector-curvature="0" /></g><g
           id="g1674"
           transform="translate(428.78318,90.289483)"><path
             d="m 0,0 c 0,-0.834 -0.676,-1.505 -1.502,-1.505 -0.832,0 -1.508,0.671 -1.508,1.505 0,0.824 0.676,1.499 1.508,1.499 C -0.676,1.499 0,0.824 0,0"
             style="fill:#050505;fill-opacity:1;fill-rule:nonzero;stroke:none"
             id="path1676"
             inkscape:connector-curvature="0" /></g><g
           id="g1678"
           transform="translate(428.78318,82.774783)"><path
             d="m 0,0 c 0,-0.83 -0.676,-1.498 -1.502,-1.498 -0.832,0 -1.508,0.668 -1.508,1.498 0,0.832 0.676,1.502 1.508,1.502 C -0.676,1.502 0,0.832 0,0"
             style="fill:#050505;fill-opacity:1;fill-rule:nonzero;stroke:none"
             id="path1680"
             inkscape:connector-curvature="0" /></g><g
           id="g1682"
           transform="translate(428.78318,75.263083)"><path
             d="m 0,0 c 0,-0.827 -0.676,-1.506 -1.502,-1.506 -0.832,0 -1.508,0.679 -1.508,1.506 0,0.828 0.676,1.502 1.508,1.502 C -0.676,1.502 0,0.828 0,0"
             style="fill:#050505;fill-opacity:1;fill-rule:nonzero;stroke:none"
             id="path1684"
             inkscape:connector-curvature="0" /></g><g
           id="g1686"
           transform="translate(428.78318,67.752383)"><path
             d="m 0,0 c 0,-0.827 -0.676,-1.507 -1.502,-1.507 -0.832,0 -1.508,0.68 -1.508,1.507 0,0.827 0.676,1.499 1.508,1.499 C -0.676,1.499 0,0.827 0,0"
             style="fill:#050505;fill-opacity:1;fill-rule:nonzero;stroke:none"
             id="path1688"
             inkscape:connector-curvature="0" /></g><g
           id="g1690"
           transform="translate(428.78318,60.237683)"><path
             d="m 0,0 c 0,-0.831 -0.676,-1.499 -1.502,-1.499 -0.832,0 -1.508,0.668 -1.508,1.499 0,0.83 0.676,1.502 1.508,1.502 C -0.676,1.502 0,0.83 0,0"
             style="fill:#050505;fill-opacity:1;fill-rule:nonzero;stroke:none"
             id="path1692"
             inkscape:connector-curvature="0" /></g><g
           id="g1694"
           transform="translate(428.78318,52.725983)"><path
             d="m 0,0 c 0,-0.827 -0.676,-1.502 -1.502,-1.502 -0.832,0 -1.508,0.675 -1.508,1.502 0,0.827 0.676,1.506 1.508,1.506 C -0.676,1.506 0,0.827 0,0"
             style="fill:#050505;fill-opacity:1;fill-rule:nonzero;stroke:none"
             id="path1696"
             inkscape:connector-curvature="0" /></g><g
           id="g1698"
           transform="translate(421.26758,88.784583)"><path
             d="m 0,0 c 0,-0.828 -0.668,-1.503 -1.502,-1.503 -0.831,0 -1.499,0.675 -1.499,1.503 0,0.83 0.668,1.505 1.499,1.505 C -0.668,1.505 0,0.83 0,0"
             style="fill:#050505;fill-opacity:1;fill-rule:nonzero;stroke:none"
             id="path1700"
             inkscape:connector-curvature="0" /></g><g
           id="g1702"
           transform="translate(421.26758,81.276783)"><path
             d="m 0,0 c 0,-0.831 -0.668,-1.506 -1.502,-1.506 -0.831,0 -1.499,0.675 -1.499,1.506 0,0.823 0.668,1.498 1.499,1.498 C -0.668,1.498 0,0.823 0,0"
             style="fill:#050505;fill-opacity:1;fill-rule:nonzero;stroke:none"
             id="path1704"
             inkscape:connector-curvature="0" /></g><g
           id="g1706"
           transform="translate(421.26758,73.757183)"><path
             d="m 0,0 c 0,-0.827 -0.668,-1.498 -1.502,-1.498 -0.831,0 -1.499,0.671 -1.499,1.498 0,0.832 0.668,1.506 1.499,1.506 C -0.668,1.506 0,0.832 0,0"
             style="fill:#050505;fill-opacity:1;fill-rule:nonzero;stroke:none"
             id="path1708"
             inkscape:connector-curvature="0" /></g><g
           id="g1710"
           transform="translate(421.26758,66.245483)"><path
             d="m 0,0 c 0,-0.826 -0.668,-1.502 -1.502,-1.502 -0.831,0 -1.499,0.676 -1.499,1.502 0,0.832 0.668,1.507 1.499,1.507 C -0.668,1.507 0,0.832 0,0"
             style="fill:#050505;fill-opacity:1;fill-rule:nonzero;stroke:none"
             id="path1712"
             inkscape:connector-curvature="0" /></g><g
           id="g1714"
           transform="translate(421.26758,58.738683)"><path
             d="m 0,0 c 0,-0.831 -0.668,-1.506 -1.502,-1.506 -0.831,0 -1.499,0.675 -1.499,1.506 0,0.827 0.668,1.499 1.499,1.499 C -0.668,1.499 0,0.827 0,0"
             style="fill:#050505;fill-opacity:1;fill-rule:nonzero;stroke:none"
             id="path1716"
             inkscape:connector-curvature="0" /></g><g
           id="g1718"
           transform="translate(421.26758,51.223983)"><path
             d="m 0,0 c 0,-0.832 -0.668,-1.503 -1.502,-1.503 -0.831,0 -1.499,0.671 -1.499,1.503 0,0.826 0.668,1.502 1.499,1.502 C -0.668,1.502 0,0.826 0,0"
             style="fill:#050505;fill-opacity:1;fill-rule:nonzero;stroke:none"
             id="path1720"
             inkscape:connector-curvature="0" /></g><g
           id="g1722"
           transform="translate(413.75588,96.294383)"><path
             d="m 0,0 c 0,-0.826 -0.672,-1.498 -1.498,-1.498 -0.834,0 -1.506,0.672 -1.506,1.498 0,0.832 0.672,1.508 1.506,1.508 C -0.672,1.508 0,0.832 0,0"
             style="fill:#050505;fill-opacity:1;fill-rule:nonzero;stroke:none"
             id="path1724"
             inkscape:connector-curvature="0" /></g><g
           id="g1726"
           transform="translate(413.75588,88.784583)"><path
             d="m 0,0 c 0,-0.828 -0.672,-1.503 -1.498,-1.503 -0.834,0 -1.506,0.675 -1.506,1.503 0,0.83 0.672,1.505 1.506,1.505 C -0.672,1.505 0,0.83 0,0"
             style="fill:#050505;fill-opacity:1;fill-rule:nonzero;stroke:none"
             id="path1728"
             inkscape:connector-curvature="0" /></g><g
           id="g1730"
           transform="translate(413.75588,81.276783)"><path
             d="m 0,0 c 0,-0.831 -0.672,-1.506 -1.498,-1.506 -0.834,0 -1.506,0.675 -1.506,1.506 0,0.823 0.672,1.498 1.506,1.498 C -0.672,1.498 0,0.823 0,0"
             style="fill:#050505;fill-opacity:1;fill-rule:nonzero;stroke:none"
             id="path1732"
             inkscape:connector-curvature="0" /></g><g
           id="g1734"
           transform="translate(413.75588,73.757183)"><path
             d="m 0,0 c 0,-0.827 -0.672,-1.498 -1.498,-1.498 -0.834,0 -1.506,0.671 -1.506,1.498 0,0.832 0.672,1.506 1.506,1.506 C -0.672,1.506 0,0.832 0,0"
             style="fill:#050505;fill-opacity:1;fill-rule:nonzero;stroke:none"
             id="path1736"
             inkscape:connector-curvature="0" /></g><g
           id="g1738"
           transform="translate(413.75588,66.245483)"><path
             d="m 0,0 c 0,-0.826 -0.672,-1.502 -1.498,-1.502 -0.834,0 -1.506,0.676 -1.506,1.502 0,0.832 0.672,1.507 1.506,1.507 C -0.672,1.507 0,0.832 0,0"
             style="fill:#050505;fill-opacity:1;fill-rule:nonzero;stroke:none"
             id="path1740"
             inkscape:connector-curvature="0" /></g><g
           id="g1742"
           transform="translate(413.75588,58.738683)"><path
             d="m 0,0 c 0,-0.831 -0.672,-1.506 -1.498,-1.506 -0.834,0 -1.506,0.675 -1.506,1.506 0,0.827 0.672,1.499 1.506,1.499 C -0.672,1.499 0,0.827 0,0"
             style="fill:#050505;fill-opacity:1;fill-rule:nonzero;stroke:none"
             id="path1744"
             inkscape:connector-curvature="0" /></g><g
           id="g1746"
           transform="translate(413.75588,51.223983)"><path
             d="m 0,0 c 0,-0.832 -0.672,-1.503 -1.498,-1.503 -0.834,0 -1.506,0.671 -1.506,1.503 0,0.826 0.672,1.502 1.506,1.502 C -0.672,1.502 0,0.826 0,0"
             style="fill:#050505;fill-opacity:1;fill-rule:nonzero;stroke:none"
             id="path1748"
             inkscape:connector-curvature="0" /></g><g
           id="g1750"
           transform="translate(406.24418,79.770883)"><path
             d="m 0,0 c 0,-0.828 -0.671,-1.507 -1.502,-1.507 -0.831,0 -1.502,0.679 -1.502,1.507 0,0.826 0.671,1.506 1.502,1.506 C -0.671,1.506 0,0.826 0,0"
             style="fill:#050505;fill-opacity:1;fill-rule:nonzero;stroke:none"
             id="path1752"
             inkscape:connector-curvature="0" /></g><g
           id="g1754"
           transform="translate(406.24418,72.259183)"><path
             d="m 0,0 c 0,-0.828 -0.671,-1.502 -1.502,-1.502 -0.831,0 -1.502,0.674 -1.502,1.502 0,0.831 0.671,1.498 1.502,1.498 C -0.671,1.498 0,0.831 0,0"
             style="fill:#050505;fill-opacity:1;fill-rule:nonzero;stroke:none"
             id="path1756"
             inkscape:connector-curvature="0" /></g><g
           id="g1758"
           transform="translate(406.24418,64.743583)"><path
             d="m 0,0 c 0,-0.826 -0.671,-1.498 -1.502,-1.498 -0.831,0 -1.502,0.672 -1.502,1.498 0,0.831 0.671,1.502 1.502,1.502 C -0.671,1.502 0,0.831 0,0"
             style="fill:#050505;fill-opacity:1;fill-rule:nonzero;stroke:none"
             id="path1760"
             inkscape:connector-curvature="0" /></g><g
           id="g1762"
           transform="translate(406.24418,57.232783)"><path
             d="m 0,0 c 0,-0.827 -0.671,-1.503 -1.502,-1.503 -0.831,0 -1.502,0.676 -1.502,1.503 0,0.827 0.671,1.506 1.502,1.506 C -0.671,1.506 0,0.827 0,0"
             style="fill:#050505;fill-opacity:1;fill-rule:nonzero;stroke:none"
             id="path1764"
             inkscape:connector-curvature="0" /></g><g
           id="g1766"
           transform="translate(406.24418,49.721083)"><path
             d="m 0,0 c 0,-0.827 -0.671,-1.503 -1.502,-1.503 -0.831,0 -1.502,0.676 -1.502,1.503 0,0.831 0.671,1.503 1.502,1.503 C -0.671,1.503 0,0.831 0,0"
             style="fill:#050505;fill-opacity:1;fill-rule:nonzero;stroke:none"
             id="path1768"
             inkscape:connector-curvature="0" /></g><g
           id="g1770"
           transform="translate(398.73438,85.782583)"><path
             d="m 0,0 c 0,-0.83 -0.672,-1.506 -1.508,-1.506 -0.83,0 -1.498,0.676 -1.498,1.506 0,0.824 0.668,1.499 1.498,1.499 C -0.672,1.499 0,0.824 0,0"
             style="fill:#050505;fill-opacity:1;fill-rule:nonzero;stroke:none"
             id="path1772"
             inkscape:connector-curvature="0" /></g><g
           id="g1774"
           transform="translate(398.73438,78.264083)"><path
             d="m 0,0 c 0,-0.827 -0.672,-1.499 -1.508,-1.499 -0.83,0 -1.498,0.672 -1.498,1.499 0,0.831 0.668,1.507 1.498,1.507 C -0.672,1.507 0,0.831 0,0"
             style="fill:#050505;fill-opacity:1;fill-rule:nonzero;stroke:none"
             id="path1776"
             inkscape:connector-curvature="0" /></g><g
           id="g1778"
           transform="translate(398.73438,70.757183)"><path
             d="m 0,0 c 0,-0.831 -0.672,-1.506 -1.508,-1.506 -0.83,0 -1.498,0.675 -1.498,1.506 0,0.826 0.668,1.502 1.498,1.502 C -0.672,1.502 0,0.826 0,0"
             style="fill:#050505;fill-opacity:1;fill-rule:nonzero;stroke:none"
             id="path1780"
             inkscape:connector-curvature="0" /></g><g
           id="g1782"
           transform="translate(398.73438,63.245483)"><path
             d="m 0,0 c 0,-0.828 -0.672,-1.506 -1.508,-1.506 -0.83,0 -1.498,0.678 -1.498,1.506 0,0.827 0.668,1.498 1.498,1.498 C -0.672,1.498 0,0.827 0,0"
             style="fill:#050505;fill-opacity:1;fill-rule:nonzero;stroke:none"
             id="path1784"
             inkscape:connector-curvature="0" /></g><g
           id="g1786"
           transform="translate(398.73438,55.729883)"><path
             d="m 0,0 c 0,-0.83 -0.672,-1.498 -1.508,-1.498 -0.83,0 -1.498,0.668 -1.498,1.498 0,0.832 0.668,1.503 1.498,1.503 C -0.672,1.503 0,0.832 0,0"
             style="fill:#050505;fill-opacity:1;fill-rule:nonzero;stroke:none"
             id="path1788"
             inkscape:connector-curvature="0" /></g></g></g></g></svg>